<?xml version="1.0" standalone="no"?>
<!DOCTYPE svg PUBLIC "-//W3C//DTD SVG 20010904//EN"
 "http://www.w3.org/TR/2001/REC-SVG-20010904/DTD/svg10.dtd">
<svg version="1.0" xmlns="http://www.w3.org/2000/svg"
 width="700.000000pt" height="700.000000pt" viewBox="0 0 700.000000 700.000000"
 preserveAspectRatio="xMidYMid meet">
<metadata>
Created by potrace 1.11, written by Peter Selinger 2001-2013
</metadata>
<g transform="translate(0.000000,700.000000) scale(0.100000,-0.100000)"
fill="#000000" stroke="none">
<path d="M1237 6814 c-1 -1 -18 -4 -37 -7 -226 -31 -457 -209 -575 -445 -71
-142 -73 -161 -70 -672 2 -250 5 -464 8 -475 3 -11 8 -33 12 -50 17 -76 80
-211 112 -243 7 -7 13 -17 13 -21 0 -14 121 -129 170 -163 l49 -33 1 -200 c0
-110 2 -990 3 -1955 2 -1389 5 -1763 16 -1795 51 -163 100 -250 192 -346 111
-116 270 -197 424 -217 28 -3 662 -6 1410 -6 1537 1 1435 -4 1605 81 76 38
110 64 180 133 97 96 149 179 185 293 33 105 37 146 38 389 l1 208 492 0 c538
0 583 4 711 57 215 91 370 271 432 503 19 73 20 108 20 1650 0 1527 -1 1577
-20 1649 -65 249 -244 442 -491 526 l-83 29 -347 4 -346 4 0 201 c0 111 -3
222 -7 247 -21 149 -98 293 -225 421 -118 119 -256 197 -400 225 -29 6 -3467
13 -3473 8z m4412 -1864 c83 -28 143 -69 181 -125 67 -97 63 -30 64 -1300 0
-632 -3 -1173 -6 -1201 -13 -106 -85 -207 -183 -253 -80 -38 -162 -46 -456
-46 l-274 1 -1 1459 c0 803 3 1467 7 1475 6 13 49 15 306 14 278 -2 302 -3
362 -24z"/>
</g>
</svg>
